# xmcd
#
# Track frame offsets:
#	150
#	18147
#	35727
#	49775
#
# Disc length: 941 seconds
#
# Revision: 1
# Processed by: cddbd v1.5PL3 Copyright (c) Steve Scherf et al.
# Submitted via: CDex 1.50Beta5
#
DISCID=2903ab04
DTITLE=門脇舞 - メガパンダ
DYEAR=1900
DGENRE=
TTITLE0=メガパンダ
TTITLE1=君のコトバ
TTITLE2=今夜はドンマイ
TTITLE3=恋のヒットチャート
EXTD=
EXTT0=
EXTT1=
EXTT2=
EXTT3=
PLAYORDER=
